# xmcd CD database file
#
# Track frame offsets:
#	187
#	28420
#	46432
#	51872
#	77435
#	100007
#	124462
#	147752
#	175737
#	198252
#
# Disc length: 2741 seconds
#
# Revision: 0
# Processed by: cddbd v1.5PL3 Copyright (c) Steve Scherf et al.
# Submitted via: CDex 1.50
#
DISCID=850ab30a
DTITLE=SPECTRUM - アクトショー
DYEAR=1900
DGENRE=JPop
TTITLE0=アクトショー
TTITLE1=ファーストウェイブ
TTITLE2=ノータイトル
TTITLE3=ロリータ
TTITLE4=メモリー
TTITLE5=クエススチョン'81＆’82
TTITLE6=パッシングドリーム
TTITLE7=トマトイッパツ
TTITLE8=ロックンロールサーカス
TTITLE9=1920アミューズカンパニー
EXTD=
EXTT0=
EXTT1=
EXTT2=
EXTT3=
EXTT4=
EXTT5=
EXTT6=
EXTT7=
EXTT8=
EXTT9=
PLAYORDER=
